<svg width="19" height="19" viewBox="0 0 19 19" fill="none" xmlns="http://www.w3.org/2000/svg">
<path d="M12.0012 15.2033C13.2131 15.8667 14.2789 15.0627 14.0471 13.6557L13.631 11.1295L15.3939 9.34042C16.3743 8.34541 15.9693 7.04163 14.6124 6.83636L12.1761 6.46778L11.092 4.1807C10.4847 2.89959 9.16615 2.88581 8.55772 4.16934L7.46819 6.46778L5.03192 6.83636C3.67698 7.04134 3.26862 8.344 4.25045 9.34042L6.01335 11.1295L5.59719 13.6557C5.36574 15.0607 6.4295 15.8676 7.64311 15.2033L9.82217 14.0106L12.0012 15.2033Z" fill="#6C5FBC"/>
<mask id="mask0_1_11085" style="mask-type:luminance" maskUnits="userSpaceOnUse" x="3" y="3" width="13" height="13">
<path d="M12.0012 15.2033C13.2131 15.8667 14.2789 15.0627 14.0471 13.6557L13.631 11.1295L15.3939 9.34042C16.3743 8.34541 15.9693 7.04163 14.6124 6.83636L12.1761 6.46778L11.092 4.1807C10.4847 2.89959 9.16615 2.88581 8.55772 4.16934L7.46819 6.46778L5.03192 6.83636C3.67698 7.04134 3.26862 8.344 4.25045 9.34042L6.01335 11.1295L5.59719 13.6557C5.36574 15.0607 6.4295 15.8676 7.64311 15.2033L9.82217 14.0106L12.0012 15.2033Z" fill="white"/>
</mask>
<g mask="url(#mask0_1_11085)">
</g>
</svg>
