<svg width="99" height="18" viewBox="0 0 99 18" fill="none" xmlns="http://www.w3.org/2000/svg">
<path fill-rule="evenodd" clip-rule="evenodd" d="M9.32158 0.93461L11.6553 5.89421L16.8722 6.68971C17.0072 6.7107 17.1192 6.80986 17.1613 6.94565C17.2034 7.08144 17.1682 7.23042 17.0706 7.33019L13.2964 11.1898L14.1875 16.6409C14.2109 16.7814 14.1558 16.9237 14.0455 17.0077C13.9352 17.0917 13.7887 17.1028 13.6679 17.0364L9.00155 14.4633L4.33516 17.0371C4.21445 17.1038 4.06795 17.0929 3.95754 17.0089C3.84714 16.9249 3.79209 16.7826 3.81565 16.642L4.70675 11.1898L0.931464 7.33019C0.833822 7.23042 0.798673 7.08144 0.840741 6.94565C0.882808 6.80986 0.994829 6.7107 1.12988 6.68971L6.34673 5.89421L8.68152 0.93461C8.74094 0.806368 8.86525 0.724915 9.00155 0.724915C9.13786 0.724915 9.26217 0.806368 9.32158 0.93461Z" fill="#F59E0B"/>
<path fill-rule="evenodd" clip-rule="evenodd" d="M29.7669 0.93461L32.1006 5.89421L37.3175 6.68971C37.4525 6.7107 37.5645 6.80986 37.6066 6.94565C37.6487 7.08144 37.6135 7.23042 37.5159 7.33019L33.7417 11.1898L34.6328 16.6409C34.6562 16.7814 34.6011 16.9237 34.4908 17.0077C34.3805 17.0917 34.2341 17.1028 34.1133 17.0364L29.4469 14.4633L24.7805 17.0371C24.6598 17.1038 24.5133 17.0929 24.4029 17.0089C24.2924 16.9249 24.2374 16.7826 24.261 16.642L25.1521 11.1898L21.3768 7.33019C21.2791 7.23042 21.244 7.08144 21.2861 6.94565C21.3281 6.80986 21.4401 6.7107 21.5752 6.68971L26.792 5.89421L29.1268 0.93461C29.1863 0.806368 29.3106 0.724915 29.4469 0.724915C29.5832 0.724915 29.7075 0.806368 29.7669 0.93461Z" fill="#F59E0B"/>
<path fill-rule="evenodd" clip-rule="evenodd" d="M50.2103 0.93461L52.544 5.89421L57.7608 6.68971C57.8959 6.7107 58.0079 6.80986 58.05 6.94565C58.092 7.08144 58.0569 7.23042 57.9593 7.33019L54.185 11.1898L55.0761 16.6409C55.0996 16.7814 55.0445 16.9237 54.9342 17.0077C54.8238 17.0917 54.6774 17.1028 54.5566 17.0364L49.8902 14.4633L45.2238 17.0371C45.1031 17.1038 44.9566 17.0929 44.8462 17.0089C44.7358 16.9249 44.6808 16.7826 44.7043 16.642L45.5954 11.1898L41.8201 7.33019C41.7225 7.23042 41.6873 7.08144 41.7294 6.94565C41.7715 6.80986 41.8835 6.7107 42.0186 6.68971L47.2354 5.89421L49.5702 0.93461C49.6296 0.806368 49.7539 0.724915 49.8902 0.724915C50.0265 0.724915 50.1508 0.806368 50.2103 0.93461Z" fill="#F59E0B"/>
<path fill-rule="evenodd" clip-rule="evenodd" d="M70.6565 0.93461L72.9903 5.89421L78.2071 6.68971C78.3422 6.7107 78.4542 6.80986 78.4963 6.94565C78.5383 7.08144 78.5032 7.23042 78.4055 7.33019L74.6313 11.1898L75.5224 16.6409C75.5459 16.7814 75.4908 16.9237 75.3805 17.0077C75.2701 17.0917 75.1237 17.1028 75.0029 17.0364L70.3365 14.4633L65.6701 17.0371C65.5494 17.1038 65.4029 17.0929 65.2925 17.0089C65.1821 16.9249 65.127 16.7826 65.1506 16.642L66.0417 11.1898L62.2664 7.33019C62.1688 7.23042 62.1336 7.08144 62.1757 6.94565C62.2178 6.80986 62.3298 6.7107 62.4648 6.68971L67.6817 5.89421L70.0165 0.93461C70.0759 0.806368 70.2002 0.724915 70.3365 0.724915C70.4728 0.724915 70.5971 0.806368 70.6565 0.93461Z" fill="#F59E0B"/>
<path fill-rule="evenodd" clip-rule="evenodd" d="M91.1009 0.93461L93.4346 5.89421L98.6515 6.68971C98.7865 6.7107 98.8985 6.80986 98.9406 6.94565C98.9827 7.08144 98.9475 7.23042 98.8499 7.33019L95.0757 11.1898L95.9668 16.6409C95.9902 16.7814 95.9351 16.9237 95.8248 17.0077C95.7145 17.0917 95.568 17.1028 95.4472 17.0364L90.7809 14.4633L86.1145 17.0371C85.9937 17.1038 85.8472 17.0929 85.7368 17.0089C85.6264 16.9249 85.5714 16.7826 85.5949 16.642L86.486 11.1898L82.7108 7.33019C82.6131 7.23042 82.578 7.08144 82.62 6.94565C82.6621 6.80986 82.7741 6.7107 82.9092 6.68971L88.126 5.89421L90.4608 0.93461C90.5202 0.806368 90.6445 0.724915 90.7809 0.724915C90.9172 0.724915 91.0415 0.806368 91.1009 0.93461Z" fill="#F59E0B"/>
</svg>
